<svg width="45" height="35" viewBox="0 0 45 35" fill="none" xmlns="http://www.w3.org/2000/svg">
<path d="M17.2988 15.6896L20.9195 21.3217L25.7471 25.3447M17.2988 15.6896L20.5172 10.0574M17.2988 15.6896L22.931 19.7125M20.5172 10.0574L26.5517 9.65508L33.3908 12.0689M20.5172 10.0574L26.954 12.8735M33.3908 12.0689L37.0115 16.0919L26.954 12.8735M33.3908 12.0689L26.954 12.8735M26.954 12.8735L22.931 19.7125M26.954 12.8735L31.3793 19.7125H22.931M22.931 19.7125L30.5747 24.9424L30.977 26.1493L25.7471 25.3447M22.931 19.7125L25.7471 25.3447" stroke="#013872"/>
<path d="M0 7.24138L4.02299 0L19.7126 9.65517L16.092 15.6897L0 7.24138Z" fill="#013872"/>
<path d="M26.1494 8.44827L38.6207 0.804588L41.0345 6.83907L32.5862 11.6667L26.5517 9.65516L26.1494 8.44827Z" fill="#013872"/>
<path d="M19.7124 35.0001L24.9423 33.7932V27.5576V24.4398L22.9308 22.9312L20.9193 21.322L19.7124 21.7243V35.0001Z" fill="#013872"/>
<path fill-rule="evenodd" clip-rule="evenodd" d="M39.4216 19.5668C40.9183 20.6246 41.3041 23.0485 39.8791 25.0647C38.4541 27.0809 36.0404 27.5261 34.5437 26.4683C34.1342 26.1789 33.8079 25.7872 33.579 25.3296C33.6046 25.3504 33.6308 25.3705 33.6576 25.3899C34.851 26.2554 36.8247 25.4961 38.066 23.6939C39.2009 22.0463 39.3307 20.0974 38.4327 19.114C38.7887 19.2049 39.1233 19.356 39.4216 19.5668ZM39.9988 18.7501C42.0495 20.1995 42.3615 23.2851 40.6957 25.6419C39.03 27.9987 36.0172 28.7343 33.9665 27.2849C31.9158 25.8355 31.6038 22.75 33.2695 20.3932C34.9353 18.0363 37.9481 17.3007 39.9988 18.7501ZM34.9865 22.992V20.5307L37.3852 21.7614L34.9865 22.992Z" fill="#013872"/>
<path d="M39.5416 17.3613C41.6801 18.8728 42.021 22.3531 40.008 25.2012C37.9951 28.0493 34.6005 28.8894 32.462 27.378C30.3235 25.8665 29.9825 22.3861 31.9955 19.5381C34.0085 16.69 37.4031 15.8498 39.5416 17.3613Z" stroke="#013872"/>
</svg>
