<svg width="56" height="57" viewBox="0 0 56 57" fill="none" xmlns="http://www.w3.org/2000/svg">
<path d="M1 15.8542L19.4543 14.7099L22.2397 16.4349L25.9537 18.735L26.7968 21.4853L16.7491 23.0612L10.8432 20.3586L4.93728 17.6559L1 15.8542Z" fill="#013872"/>
<path d="M36.7092 13.41L40.1471 12.356L44.2174 13.3648L49.1861 14.8504L54.1547 16.336L45.9038 18.8655L41.6227 17.1691L37.3416 15.4727L36.7092 13.41Z" fill="#013872"/>
<path d="M4.93728 17.6559L1 15.8542L19.4543 14.7099L25.9537 18.735M4.93728 17.6559L22.2397 16.4349L25.9537 18.735M4.93728 17.6559L10.8432 20.3586M25.9537 18.735L26.7968 21.4853L16.7491 23.0612L10.8432 20.3586M25.9537 18.735L10.8432 20.3586M37.3416 15.4727L36.7092 13.41L40.1471 12.356L44.2174 13.3648M37.3416 15.4727L44.2174 13.3648M37.3416 15.4727L41.6227 17.1691M44.2174 13.3648L49.1861 14.8504M49.1861 14.8504L41.6227 17.1691M49.1861 14.8504L54.1547 16.336L45.9037 18.8655L41.6227 17.1691" stroke="white" stroke-width="0.5"/>
<path d="M30.2021 31.8542L37.0764 54.2776L38.8417 54.3205L41.141 54.1997M30.2021 31.8542L31.2698 31.5269L33.9393 30.7085M30.2021 31.8542L27.9028 31.975L42.8518 27.3921L41.4138 28.4171M41.4138 28.4171L48.2881 50.8404L44.8782 53.0539M41.4138 28.4171L37.6765 29.5628M44.8782 53.0539L41.141 54.1997M44.8782 53.0539L37.6765 29.5628M41.141 54.1997L33.9393 30.7085M33.9393 30.7085L37.6765 29.5628" stroke="#013872" stroke-width="1.5"/>
<path d="M30.0893 21.9608L26.3521 23.1065L28.9708 31.6487L32.7081 30.503M30.0893 21.9608L39.1654 19.1783L41.7842 27.7205L32.7081 30.503M30.0893 21.9608L32.7081 30.503" stroke="#013872" stroke-width="1.5"/>
<path d="M46.6514 45.5025L49.9326 48.5851L52.3098 52.5288" stroke="#013872"/>
<path d="M35.6033 49.4732L34.8629 50.8684L34.7772 54.399" stroke="#013872"/>
<path d="M29.4419 12.2292L24.5941 15.4676L26.7218 22.4082L31.897 20.2376M29.4419 12.2292L36.176 11.3329L38.4674 18.8074L31.897 20.2376M29.4419 12.2292L31.897 20.2376" stroke="#013872" stroke-width="1.5"/>
<path d="M51.242 52.8555L53.2141 51.6671" stroke="#013872"/>
<path d="M33.5656 54.2576L35.7088 54.3291" stroke="#013872"/>
<path d="M32.0257 14.9422L31.5347 13.3405L32.7661 13.547L33.0935 14.6148L32.0257 14.9422Z" fill="#013872" stroke="#013872"/>
<path d="M35.2292 13.9598L34.9019 12.892L35.4357 12.7283L35.7631 13.7961L35.2292 13.9598Z" fill="#013872" stroke="#013872"/>
</svg>
