<svg width="53" height="31" viewBox="0 0 53 31" fill="none" xmlns="http://www.w3.org/2000/svg">
<path d="M14.1632 21.5713L1 15.1428V8.28566M14.1632 21.5713V14.2856M14.1632 21.5713L19.8876 20.0713M14.1632 14.2856L1 8.28566M14.1632 14.2856L19.8876 6.57139M1 8.28566L6.99996 1.85714M19.8876 6.57139L6.99996 1.85714M19.8876 6.57139L28.2141 5.49997M6.99996 1.85714L14.1632 1L28.2141 5.49997M28.2141 5.49997L30.8161 9.1428" stroke="#013872" stroke-width="1.5"/>
<path d="M47.986 17.6452L49.0304 16.949L46.5042 15.6859C46.1172 15.4924 45.8033 15.1785 45.6098 14.7915L44.8022 13.1763C44.516 12.6039 43.9733 12.2031 43.3421 12.0979L41.7381 11.8306C41.4012 11.7744 41.0843 11.6329 40.8175 11.4195L39.1701 10.1016C38.8155 9.81787 38.3749 9.66331 37.9207 9.66331H36.4999C35.8703 9.66331 35.2776 9.36692 34.8999 8.86331L34.7865 8.71212C34.2783 8.03453 33.3984 7.75053 32.5899 8.00316L25.8228 10.1179C25.6828 10.1616 25.5384 10.1899 25.3923 10.202L21.9664 10.4875C20.7215 10.5913 19.975 11.9195 20.5337 13.0369C20.7822 13.534 20.7822 14.1191 20.5337 14.6162L19.6314 16.4207C19.459 16.7655 19.39 17.1528 19.4325 17.536L19.7754 20.6217C19.846 21.2569 20.2159 21.8202 20.7709 22.1373L22.6921 23.2351C23.2218 23.5378 23.8607 23.5822 24.4272 23.3556L25.775 22.8165C26.0112 22.722 26.2633 22.6734 26.5177 22.6734H28.7409C29.056 22.6734 29.344 22.4954 29.4849 22.2136C29.6556 21.8721 30.0368 21.6907 30.4095 21.7735L33.4687 22.4534C33.7998 22.5269 33.855 22.9755 33.5517 23.1271C33.4662 23.1698 33.4013 23.2447 33.3711 23.3354L33.2094 23.8203C33.0185 24.3932 32.5202 24.809 31.9224 24.8944L30.4678 25.1022C29.8092 25.1963 29.3648 25.8244 29.4953 26.4768C29.6396 27.1987 30.4117 27.6048 31.0883 27.3148L33.0456 26.476C33.2819 26.3747 33.5509 26.3826 33.7809 26.4976C34.17 26.6921 34.3569 27.1432 34.2193 27.556L34.0207 28.1518C33.9663 28.3148 33.9386 28.4855 33.9386 28.6573V29.1933C33.9386 29.3558 33.9648 29.5173 34.0162 29.6715L34.0909 29.8955C34.2986 30.5187 34.9511 30.8769 35.5884 30.7176C36.1481 30.5776 36.5407 30.0748 36.5407 29.498V28.7059C36.5407 28.1755 36.7514 27.6668 37.1265 27.2917L37.6534 26.7648C38.2167 26.2014 39.0995 26.114 39.7624 26.5559C40.037 26.739 40.3596 26.8367 40.6896 26.8367H43.1079C43.2396 26.8367 43.371 26.8497 43.5001 26.8755L45.9079 27.3571L45.4771 25.6337C45.4176 25.3958 45.3875 25.1514 45.3875 24.9061V23.7716C45.3875 23.3899 45.4604 23.0118 45.6021 22.6574L46.4284 20.5918L47.2385 18.5665C47.3887 18.1909 47.6494 17.8696 47.986 17.6452Z" fill="#013872"/>
<path d="M49.3249 17.4908C49.7689 17.6242 50.1886 18.159 50.3667 19.1986C50.5389 20.2045 50.4484 21.532 50.028 22.9304C49.6077 24.3289 48.9512 25.4863 48.2529 26.2305C47.5312 26.9996 46.8862 27.2143 46.4421 27.0808C45.9981 26.9474 45.5783 26.4126 45.4003 25.373C45.2281 24.3671 45.3186 23.0396 45.739 21.6412C46.1593 20.2427 46.8158 19.0853 47.5141 18.3411C48.2358 17.572 48.8808 17.3573 49.3249 17.4908Z" stroke="#013872"/>
</svg>
